<svg width="32" height="43" viewBox="0 0 32 43" fill="none" xmlns="https://www.w3.org/2000/svg">
<g id="Pin drop" clip-path="url(#clip0_8210_71410)">
<path id="path4127" d="M15.9917 42.5444C15.8954 42.3134 13.8936 40.3817 12.4602 38.6264C3.96748 27.4994 -5.50119 17.1608 5.55526 4.59669C10.4508 -0.0707158 16.4874 -0.336976 22.6932 1.8386C40.1671 11.8166 27.5158 28.0939 19.2088 38.7944L15.9917 42.5444ZM21.248 25.4884C32.9031 17.2631 23.8924 1.42421 11.087 6.68964C7.34768 8.65718 5.49228 12.0806 5.4273 16.1186C5.24875 20.0468 7.36276 23.3315 10.7128 25.3437C13.1147 26.6338 14.1706 26.8668 16.8901 26.7068C18.6527 26.6032 19.6683 26.3192 21.248 25.4884Z" fill="#111111"/>
<path id="path4129" d="M12.6519 29.4152C8.69585 28.6026 5.23411 26.3151 3.02241 23.0523C0.810711 19.7894 0.0286807 15.8161 0.847035 11.9997C1.66539 8.18336 4.01766 4.83385 7.39036 2.68242C10.7631 0.530977 14.8823 -0.247662 18.8487 0.516474C22.8152 1.28061 26.3069 3.52546 28.5614 6.76098C30.816 9.9965 31.6504 13.9599 30.8824 17.786C30.1145 21.6121 27.8066 24.9901 24.4625 27.1827C21.1185 29.3752 17.0099 30.2042 13.0336 29.4887" fill="#111111"/>
<path id="path4149" d="M13.6528 27.339C10.7134 26.7015 8.14139 24.9073 6.49812 22.3478C4.85485 19.7884 4.27381 16.6716 4.88183 13.678C5.48986 10.6843 7.23758 8.05692 9.74347 6.36929C12.2494 4.68166 15.3099 4.07088 18.2569 4.67029C21.204 5.26969 23.7983 7.03059 25.4734 9.56859C27.1485 12.1066 27.7684 15.2156 27.1979 18.2168C26.6273 21.2181 24.9125 23.8679 22.4279 25.5878C19.9433 27.3076 16.8907 27.9579 13.9364 27.3967" fill="#111111"/>
<path id="path4184" d="M14.3037 23.3224C12.3599 22.9045 10.6589 21.728 9.57219 20.0498C8.48545 18.3717 8.1012 16.3281 8.5033 14.3652C8.9054 12.4024 10.0612 10.6797 11.7184 9.57312C13.3756 8.46658 15.3996 8.06611 17.3486 8.45912C19.2975 8.85213 21.0132 10.0067 22.121 11.6708C23.2288 13.3349 23.6388 15.3734 23.2614 17.3412C22.8841 19.3091 21.7501 21.0465 20.107 22.1742C18.4638 23.3019 16.4451 23.7282 14.4913 23.3602" fill="white"/>
</g>
<defs>
<clipPath id="clip0_8210_71410">
<rect width="32" height="43" fill="white"/>
</clipPath>
</defs>
</svg>
